<?xml version="1.0" standalone="no"?>
<!DOCTYPE svg PUBLIC "-//W3C//DTD SVG 20010904//EN"
 "http://www.w3.org/TR/2001/REC-SVG-20010904/DTD/svg10.dtd">
<svg version="1.0" xmlns="http://www.w3.org/2000/svg"
 width="512.000000pt" height="512.000000pt" viewBox="0 0 512.000000 512.000000"
 preserveAspectRatio="xMidYMid meet">

<g transform="translate(0.000000,512.000000) scale(0.100000,-0.100000)"
fill="#000000" stroke="none">
<path d="M1 4818 c1 -286 1 -299 15 -238 20 94 48 157 102 228 56 73 130 132
210 164 l57 23 1990 0 1990 0 60 -23 c124 -47 232 -158 288 -297 l32 -80 3
-1139 2 -1138 42 -47 c98 -111 104 -229 15 -335 l-24 -29 37 -91 37 -91 54 -6
c92 -10 165 -64 193 -143 13 -36 15 172 15 1752 l1 1792 -2560 0 -2560 0 1
-302z"/>
<path d="M402 4787 c-44 -14 -116 -79 -148 -133 -51 -87 -54 -116 -54 -566 l0
-418 2180 0 2180 0 0 383 c0 210 -5 413 -10 452 -19 129 -79 223 -172 269
l-52 26 -1945 -1 c-1332 -1 -1956 -4 -1979 -12z m638 -239 c46 -13 130 -70
157 -106 56 -76 68 -113 68 -212 0 -89 -2 -99 -34 -158 -97 -179 -314 -232
-487 -118 -128 85 -178 265 -114 413 26 60 108 143 166 168 77 33 159 37 244
13z m912 -15 c68 -30 139 -101 170 -170 16 -36 22 -69 22 -133 1 -74 -3 -93
-27 -142 -36 -74 -119 -150 -189 -174 -129 -45 -268 -11 -360 87 -66 70 -91
140 -86 244 4 95 30 158 93 220 100 100 244 126 377 68z m2075 3 c73 -33 144
-104 176 -174 33 -72 31 -198 -4 -272 -47 -97 -121 -158 -226 -185 -53 -14
-131 -15 -555 -13 l-493 3 -60 28 c-126 59 -199 171 -199 307 0 60 5 86 25
130 49 106 131 173 239 197 40 9 190 11 545 10 l490 -2 62 -29z"/>
<path d="M880 4352 c-106 -53 -105 -192 2 -248 38 -20 74 -17 118 7 48 27 70
66 70 122 0 53 -34 101 -87 123 -43 18 -61 18 -103 -4z"/>
<path d="M1755 4350 c-101 -50 -104 -188 -5 -242 62 -34 141 -10 180 55 69
113 -57 247 -175 187z"/>
<path d="M2965 4363 c-37 -9 -83 -52 -95 -89 -15 -44 -6 -93 22 -129 43 -54
48 -55 555 -55 522 0 514 -1 560 69 45 66 18 156 -57 193 -32 16 -76 18 -500
17 -256 -1 -474 -4 -485 -6z"/>
<path d="M202 2508 l3 -963 23 -56 c30 -75 94 -146 157 -175 49 -23 55 -24
383 -24 l334 0 29 -29 c31 -31 39 -83 19 -122 -25 -46 -49 -49 -383 -49 -173
0 -339 5 -368 10 -119 22 -233 103 -306 218 -39 60 -59 110 -78 197 -12 52
-14 -45 -14 -727 l-1 -788 2560 0 2560 0 -1 643 c0 353 -4 631 -8 617 -31 -99
-101 -156 -207 -167 -30 -3 -54 -10 -54 -15 0 -6 -16 -46 -35 -91 l-35 -81 29
-30 c64 -67 79 -163 37 -251 -29 -62 -175 -207 -237 -235 -79 -35 -170 -22
-237 36 l-38 32 -91 -36 -91 -35 -6 -55 c-10 -88 -48 -146 -121 -185 -36 -20
-55 -22 -195 -22 -152 0 -156 1 -203 28 -62 37 -107 112 -107 180 0 42 -3 49
-27 59 -16 6 -57 24 -92 40 l-64 29 -39 -31 c-52 -42 -98 -60 -155 -60 -75 1
-119 28 -229 141 -83 86 -102 112 -112 151 -7 26 -12 55 -12 65 0 39 23 95 56
139 l36 46 -25 57 c-13 31 -30 71 -37 89 l-12 32 -430 0 c-474 0 -484 1 -508
61 -16 37 -6 91 21 115 20 18 44 19 340 22 l319 3 0 130 c0 142 10 181 58 233
37 39 98 66 152 66 l46 0 36 92 36 92 -25 31 c-59 69 -76 145 -51 229 16 55
184 230 247 259 82 36 178 22 248 -37 l32 -27 88 35 c61 24 89 41 91 53 13 90
27 128 60 166 61 66 95 77 260 77 156 0 194 -9 245 -58 40 -38 59 -78 66 -141
l6 -54 92 -39 91 -39 46 35 c49 37 100 56 154 56 l32 0 -2 508 -3 507 -2178 3
-2177 2 2 -962z m1463 378 c38 -16 55 -42 55 -85 0 -45 -199 -872 -216 -899
-49 -76 -174 -36 -174 56 0 39 194 863 211 894 9 17 60 46 82 48 4 0 23 -6 42
-14z m-634 -95 c22 -23 29 -39 29 -69 0 -36 -9 -50 -82 -134 -45 -51 -103
-116 -130 -145 -26 -28 -48 -57 -48 -63 0 -6 53 -71 118 -143 65 -73 124 -142
130 -154 35 -66 -12 -143 -87 -143 -46 0 -50 4 -260 240 -126 142 -144 178
-120 241 13 36 271 336 327 380 37 29 88 25 123 -10z m1154 -34 c33 -35 108
-118 167 -184 120 -136 138 -173 116 -235 -12 -36 -255 -318 -320 -373 -39
-33 -87 -33 -127 1 -26 21 -31 33 -31 69 0 42 6 50 130 189 72 80 130 150 130
155 0 5 -44 58 -97 118 -173 193 -163 179 -163 224 0 56 42 99 97 99 33 0 45
-7 98 -63z m-604 -1496 c73 -74 0 -196 -98 -164 -15 5 -38 25 -51 44 -30 43
-24 84 18 122 42 38 92 37 131 -2z"/>
<path d="M3717 2483 c-4 -3 -7 -42 -7 -85 0 -71 -2 -80 -27 -107 -19 -20 -51
-36 -103 -51 -41 -12 -113 -41 -159 -66 -106 -56 -128 -56 -189 -1 -100 90
-81 90 -167 7 -41 -41 -75 -78 -75 -83 0 -5 24 -36 54 -68 76 -81 78 -99 23
-207 -25 -48 -57 -126 -72 -175 -33 -108 -46 -119 -158 -125 -45 -3 -85 -10
-89 -16 -13 -19 -9 -191 4 -204 7 -7 42 -12 89 -12 101 0 121 -15 150 -113 12
-40 43 -116 70 -170 27 -54 49 -109 49 -123 0 -18 -19 -45 -60 -88 -33 -35
-60 -67 -60 -72 0 -13 143 -154 156 -154 5 0 32 23 59 50 76 78 98 80 219 20
56 -27 134 -58 174 -70 96 -29 112 -49 112 -144 0 -105 3 -107 130 -104 l105
3 5 92 c6 111 17 126 106 149 32 9 102 36 154 62 52 25 106 49 119 53 34 11
78 -11 131 -65 24 -25 51 -46 60 -46 19 0 150 130 150 149 0 8 -25 40 -55 72
-71 74 -72 99 -11 218 24 48 54 121 67 164 29 100 43 110 158 117 l86 5 0 110
0 110 -81 5 c-119 8 -136 22 -169 143 -9 32 -36 97 -60 144 -62 120 -61 145
10 221 30 33 55 64 55 69 0 4 -33 41 -74 82 -84 83 -81 83 -156 7 -65 -67 -85
-68 -205 -7 -55 28 -131 59 -169 68 -98 26 -116 47 -116 139 0 108 5 104 -119
104 -59 0 -111 -3 -114 -7z m267 -483 c112 -29 190 -73 277 -160 303 -300 218
-802 -166 -985 -94 -44 -162 -59 -270 -59 -166 1 -298 57 -421 179 -129 128
-184 258 -184 435 0 238 133 448 348 551 130 61 276 75 416 39z"/>
<path d="M3715 1806 c-116 -37 -207 -116 -258 -224 -30 -63 -32 -74 -32 -177
0 -105 2 -113 34 -177 82 -165 266 -261 438 -229 89 16 163 54 224 114 222
218 136 587 -159 686 -70 24 -184 27 -247 7z"/>
</g>
</svg>
