<?xml version="1.0" standalone="no"?>
<!DOCTYPE svg PUBLIC "-//W3C//DTD SVG 20010904//EN"
 "http://www.w3.org/TR/2001/REC-SVG-20010904/DTD/svg10.dtd">
<svg version="1.0" xmlns="http://www.w3.org/2000/svg"
 width="512.000000pt" height="512.000000pt" viewBox="0 0 512.000000 512.000000"
 preserveAspectRatio="xMidYMid meet">

<g transform="translate(0.000000,512.000000) scale(0.100000,-0.100000)"
fill="#000000" stroke="none">
<path d="M1 3908 c1 -731 5 -1189 10 -1153 37 251 193 490 410 628 60 38 203
100 257 112 36 7 37 11 47 120 8 93 40 240 76 347 34 100 103 255 126 280 22
24 85 24 106 0 26 -29 21 -59 -32 -177 -80 -181 -122 -343 -139 -543 -11 -125
-25 -145 -111 -163 -270 -55 -486 -254 -571 -524 -29 -96 -37 -265 -17 -362
34 -157 98 -274 214 -390 66 -66 99 -90 175 -127 179 -88 7 -81 1908 -81
l1685 0 80 23 c44 13 116 39 159 59 89 40 119 38 145 -9 35 -62 -21 -110 -196
-169 -114 -39 -234 -59 -354 -59 l-99 0 0 -205 c0 -251 -3 -245 119 -245 l79
0 22 45 c42 86 150 155 245 155 142 0 275 -133 275 -275 0 -142 -133 -275
-275 -275 -94 0 -203 68 -244 154 l-22 44 -97 4 c-84 3 -104 7 -145 31 -30 18
-56 44 -74 75 l-28 47 -3 222 -3 223 -235 0 -234 0 0 -485 c0 -572 -11 -525
119 -525 l79 0 22 45 c42 86 150 155 245 155 142 0 275 -133 275 -275 0 -142
-133 -275 -275 -275 -94 0 -203 68 -244 154 l-22 44 -97 4 c-84 3 -104 7 -145
31 -30 18 -56 44 -74 75 l-28 47 -3 503 -3 502 -239 0 -240 0 0 -344 c0 -332
-1 -344 -21 -370 -28 -36 -80 -36 -108 0 -20 26 -21 38 -21 370 l0 344 -240 0
-240 0 0 -104 c0 -89 -3 -107 -21 -130 -28 -36 -80 -36 -108 0 -18 23 -21 41
-21 130 l0 104 -234 0 -235 0 -3 -222 -3 -223 -28 -47 c-18 -31 -44 -57 -74
-75 -41 -24 -61 -28 -145 -31 l-97 -4 -22 -44 c-41 -86 -150 -154 -244 -154
-142 0 -275 133 -275 275 0 142 133 275 275 275 95 0 203 -69 245 -155 l22
-45 79 0 c122 0 119 -6 119 243 l0 204 -232 6 c-203 5 -246 9 -330 31 -344 88
-603 379 -658 741 -4 28 -8 -523 -9 -1222 l-1 -1273 1258 1 c1133 0 1252 2
1208 15 -70 22 -149 103 -170 174 -20 67 -20 103 -1 167 19 62 80 134 140 163
l45 22 0 88 c0 105 19 140 75 140 56 0 75 -35 75 -140 l0 -88 45 -22 c60 -29
121 -101 140 -163 19 -64 19 -100 -1 -167 -21 -71 -100 -152 -170 -174 -44
-13 76 -15 1214 -15 l1262 -1 -1 1398 c-1 873 -5 1371 -10 1327 -28 -217 -121
-427 -268 -603 -47 -56 -55 -62 -90 -62 -46 0 -71 24 -71 67 0 23 14 48 51 93
341 407 314 1000 -62 1371 -174 170 -395 268 -652 288 -117 9 -130 18 -171
126 -93 238 -287 490 -504 652 -291 219 -633 325 -996 310 -397 -17 -748 -171
-1033 -454 -90 -89 -108 -103 -137 -103 -42 0 -66 26 -66 72 0 30 11 46 78
115 280 289 651 471 1047 512 47 5 -394 9 -1077 10 l-1158 1 1 -1212z m1979
-2685 c21 -26 21 -35 18 -268 l-3 -240 -28 -47 c-18 -31 -44 -57 -74 -75 -41
-24 -61 -28 -145 -31 l-97 -4 -22 -44 c-41 -86 -150 -154 -244 -154 -142 0
-275 133 -275 275 0 142 133 275 275 275 95 0 203 -69 245 -155 l22 -45 79 0
c123 0 119 -8 119 264 0 211 1 225 21 250 29 36 80 36 109 -1z"/>
<path d="M1335 751 c-11 -5 -31 -21 -45 -36 -20 -22 -25 -37 -25 -81 0 -47 4
-57 33 -86 29 -29 39 -33 87 -33 48 0 58 4 87 33 29 29 33 39 33 87 0 48 -4
58 -31 86 -34 33 -99 48 -139 30z"/>
<path d="M2590 5109 c271 -31 521 -120 738 -262 206 -135 359 -286 494 -486
63 -94 168 -294 168 -319 0 -6 30 -13 68 -17 222 -22 442 -107 607 -235 73
-56 203 -193 252 -265 103 -153 177 -352 196 -535 2 -19 5 452 5 1048 l2 1082
-1302 -1 c-780 -1 -1273 -5 -1228 -10z"/>
<path d="M715 1311 c-11 -5 -31 -21 -45 -36 -20 -22 -25 -37 -25 -81 0 -47 4
-57 33 -86 29 -29 39 -33 87 -33 48 0 58 4 87 33 29 29 33 39 33 87 0 48 -4
58 -31 86 -34 33 -99 48 -139 30z"/>
<path d="M4295 1311 c-11 -5 -31 -21 -45 -36 -20 -22 -25 -37 -25 -81 0 -47 4
-57 33 -86 29 -29 39 -33 87 -33 48 0 58 4 87 33 29 29 33 39 33 87 0 48 -4
58 -31 86 -34 33 -99 48 -139 30z"/>
<path d="M3675 751 c-11 -5 -31 -21 -45 -36 -20 -22 -25 -37 -25 -81 0 -47 4
-57 33 -86 29 -29 39 -33 87 -33 48 0 58 4 87 33 29 29 33 39 33 87 0 48 -4
58 -31 86 -34 33 -99 48 -139 30z"/>
<path d="M2505 391 c-11 -5 -31 -21 -45 -36 -20 -22 -25 -37 -25 -81 0 -47 4
-57 33 -86 29 -29 39 -33 87 -33 48 0 58 4 87 33 29 29 33 39 33 87 0 48 -4
58 -31 86 -34 33 -99 48 -139 30z"/>
</g>
</svg>
