<?xml version="1.0" standalone="no"?>
<!DOCTYPE svg PUBLIC "-//W3C//DTD SVG 20010904//EN"
 "http://www.w3.org/TR/2001/REC-SVG-20010904/DTD/svg10.dtd">
<svg version="1.0" xmlns="http://www.w3.org/2000/svg"
 width="512.000000pt" height="512.000000pt" viewBox="0 0 512.000000 512.000000"
 preserveAspectRatio="xMidYMid meet">

<g transform="translate(0.000000,512.000000) scale(0.100000,-0.100000)"
fill="#000000" stroke="none">
<path d="M0 2560 l0 -2560 2560 0 2560 0 0 2560 0 2560 -2560 0 -2560 0 0
-2560z m506 2372 c46 -24 84 -63 110 -112 26 -51 25 -152 -3 -206 -24 -44 -79
-98 -112 -109 -20 -6 -21 -14 -21 -158 l0 -152 137 -137 138 -138 483 0 483 0
99 53 100 52 0 170 0 170 -137 137 -138 138 -72 0 c-64 0 -72 -2 -78 -21 -11
-33 -65 -88 -109 -112 -56 -29 -155 -30 -211 0 -86 45 -129 117 -129 213 0 97
45 169 134 216 51 26 152 25 206 -3 44 -24 98 -79 109 -112 6 -19 14 -21 101
-21 63 0 104 -5 122 -14 32 -17 335 -322 351 -353 7 -14 11 -110 11 -275 l0
-254 28 -27 c24 -23 32 -25 62 -17 19 5 53 13 76 19 l41 11 24 107 c28 132 44
153 119 153 l50 0 0 174 c0 168 -1 175 -21 181 -33 11 -88 65 -112 109 -29 56
-30 155 0 211 45 86 117 129 213 129 96 0 168 -43 213 -129 30 -56 29 -155 0
-211 -24 -44 -79 -98 -112 -109 -20 -6 -21 -13 -21 -181 l0 -174 50 0 c75 0
91 -21 119 -153 l24 -107 41 -11 c23 -6 57 -14 76 -19 30 -8 38 -6 62 17 l28
27 0 253 c0 201 3 260 14 281 17 32 322 335 353 351 12 6 64 11 117 11 87 0
95 2 101 21 11 33 65 88 109 112 56 29 155 30 211 0 86 -45 129 -117 129 -213
0 -96 -43 -168 -129 -213 -56 -30 -155 -29 -211 0 -44 24 -98 79 -109 112 -6
19 -14 21 -78 21 l-72 0 -137 -137 -138 -138 0 -170 0 -170 103 -53 102 -53
480 1 480 0 137 137 138 138 0 152 c0 144 -1 152 -21 158 -33 11 -88 65 -112
109 -28 54 -29 155 -3 206 47 89 119 134 216 134 97 0 169 -45 216 -134 26
-51 25 -152 -3 -206 -24 -44 -79 -98 -112 -109 -20 -6 -21 -13 -21 -181 0
-132 -4 -182 -14 -202 -11 -21 -327 -344 -347 -354 -2 -1 -211 -5 -463 -8
l-460 -5 -27 -90 -26 -90 56 -55 c30 -30 62 -54 71 -52 8 2 50 14 93 28 136
42 153 36 224 -78 l36 -58 158 0 c151 0 158 1 164 21 11 33 65 88 109 112 56
29 155 30 211 0 86 -45 129 -117 129 -213 0 -96 -43 -168 -129 -213 -56 -30
-155 -29 -211 0 -44 24 -98 79 -109 112 -6 20 -14 21 -126 21 -118 0 -119 0
-119 -23 0 -17 -27 -50 -86 -109 -86 -85 -86 -85 -76 -119 6 -19 16 -52 21
-75 l11 -41 107 -24 c132 -28 153 -44 153 -119 l0 -50 174 0 c168 0 175 1 181
21 11 33 65 88 109 112 56 29 155 30 211 0 86 -45 129 -117 129 -213 0 -96
-43 -168 -129 -213 -56 -30 -155 -29 -211 0 -44 24 -98 79 -109 112 -6 20 -13
21 -181 21 l-174 0 0 -50 c0 -75 -21 -91 -153 -119 l-107 -24 -11 -41 c-5 -23
-15 -56 -21 -75 -10 -34 -10 -34 76 -119 59 -59 86 -92 86 -109 0 -23 1 -23
119 -23 112 0 120 1 126 21 11 33 65 88 109 112 56 29 155 30 211 0 86 -45
129 -117 129 -213 0 -96 -43 -168 -129 -213 -56 -30 -155 -29 -211 0 -44 24
-98 79 -109 112 -6 20 -13 21 -165 21 l-159 0 -35 -57 c-69 -115 -87 -121
-223 -79 -43 14 -85 26 -93 28 -9 2 -41 -22 -71 -52 l-56 -55 27 -90 28 -90
458 -5 c253 -3 461 -7 463 -8 20 -10 336 -333 347 -354 10 -20 14 -70 14 -202
0 -168 1 -175 21 -181 33 -11 88 -65 112 -109 28 -54 29 -155 3 -206 -47 -89
-119 -134 -216 -134 -96 0 -168 43 -213 129 -30 56 -29 155 0 211 24 44 79 98
112 109 20 6 21 14 21 158 l0 152 -137 137 -138 138 -480 0 -480 1 -102 -53
-103 -53 0 -170 0 -170 137 -137 138 -138 72 0 c64 0 72 2 78 21 11 33 65 88
109 112 54 28 155 29 206 3 89 -47 134 -119 134 -216 0 -96 -43 -168 -129
-213 -56 -30 -155 -29 -211 0 -44 24 -98 79 -109 112 -6 19 -14 21 -101 21
-53 0 -105 5 -117 11 -31 16 -336 319 -353 351 -11 21 -14 80 -14 281 l0 253
-28 27 c-24 23 -32 25 -62 17 -19 -5 -53 -13 -76 -19 l-41 -11 -24 -107 c-28
-132 -44 -153 -119 -153 l-50 0 0 -174 c0 -168 1 -175 21 -181 33 -11 88 -65
112 -109 29 -56 30 -155 0 -211 -45 -86 -117 -129 -213 -129 -96 0 -168 43
-213 129 -30 56 -29 155 0 211 24 44 79 98 112 109 20 6 21 13 21 181 l0 174
-50 0 c-75 0 -91 21 -119 153 l-24 107 -41 11 c-23 5 -56 15 -74 21 -30 9 -37
7 -63 -18 l-29 -28 0 -254 c0 -165 -4 -261 -11 -275 -16 -31 -319 -336 -351
-353 -18 -9 -59 -14 -122 -14 -87 0 -95 -2 -101 -21 -11 -33 -65 -88 -109
-112 -54 -28 -155 -29 -206 -3 -89 47 -134 119 -134 216 0 97 45 169 134 216
51 26 152 25 206 -3 44 -24 98 -79 109 -112 6 -19 14 -21 78 -21 l72 0 137
137 138 138 0 170 0 170 -100 53 -99 52 -483 0 -483 0 -137 -137 -138 -138 0
-152 c0 -144 1 -152 21 -158 33 -11 88 -65 112 -109 29 -56 30 -155 0 -211
-45 -86 -117 -129 -213 -129 -96 0 -168 43 -213 129 -30 56 -29 155 0 211 24
44 79 98 112 109 20 6 21 13 21 181 0 132 4 182 14 202 11 21 327 344 347 354
2 1 210 5 463 8 l458 5 28 90 27 90 -56 55 c-30 30 -62 54 -71 52 -8 -2 -50
-14 -93 -28 -136 -42 -153 -36 -224 78 l-36 58 -158 0 c-151 0 -158 -1 -164
-21 -11 -33 -65 -88 -109 -112 -54 -28 -155 -29 -206 -3 -89 47 -134 119 -134
216 0 97 45 169 134 216 51 26 152 25 206 -3 44 -24 98 -79 109 -112 6 -20 14
-21 126 -21 118 0 119 0 119 23 0 17 27 50 86 109 86 85 86 85 76 119 -6 19
-16 52 -21 75 l-11 41 -108 24 c-132 29 -152 45 -152 119 l0 50 -174 0 c-168
0 -175 -1 -181 -21 -11 -33 -65 -88 -109 -112 -56 -29 -155 -30 -211 0 -86 45
-129 117 -129 213 0 96 43 168 129 213 56 30 155 29 211 0 44 -24 98 -79 109
-112 6 -20 13 -21 181 -21 l174 0 0 50 c0 74 20 90 152 119 l108 24 11 41 c5
23 14 57 20 76 9 35 8 36 -76 119 -59 58 -85 91 -85 108 0 23 -1 23 -119 23
-112 0 -120 -1 -126 -21 -11 -33 -65 -88 -109 -112 -56 -29 -155 -30 -211 0
-86 45 -129 117 -129 213 0 97 45 169 134 216 51 26 152 25 206 -3 44 -24 98
-79 109 -112 6 -20 13 -21 163 -21 l158 0 48 75 c69 105 68 105 276 42 l45
-14 56 57 56 57 -27 89 -28 89 -458 5 c-253 3 -461 7 -463 8 -20 10 -336 333
-347 354 -10 20 -14 70 -14 202 0 168 -1 175 -21 181 -33 11 -88 65 -112 109
-28 54 -29 155 -3 206 64 123 205 172 322 112z"/>
<path d="M345 4775 c-50 -49 -15 -135 55 -135 41 0 80 39 80 80 0 41 -39 80
-80 80 -19 0 -40 -9 -55 -25z"/>
<path d="M1225 4775 c-50 -49 -15 -135 55 -135 41 0 80 39 80 80 0 41 -39 80
-80 80 -19 0 -40 -9 -55 -25z"/>
<path d="M2505 4775 c-50 -49 -15 -135 55 -135 19 0 40 9 55 25 16 15 25 36
25 55 0 19 -9 40 -25 55 -15 16 -36 25 -55 25 -19 0 -40 -9 -55 -25z"/>
<path d="M3785 4775 c-16 -15 -25 -36 -25 -55 0 -19 9 -40 25 -55 15 -16 36
-25 55 -25 19 0 40 9 55 25 16 15 25 36 25 55 0 19 -9 40 -25 55 -15 16 -36
25 -55 25 -19 0 -40 -9 -55 -25z"/>
<path d="M4665 4775 c-16 -15 -25 -36 -25 -55 0 -19 9 -40 25 -55 15 -16 36
-25 55 -25 19 0 40 9 55 25 16 15 25 36 25 55 0 19 -9 40 -25 55 -15 16 -36
25 -55 25 -19 0 -40 -9 -55 -25z"/>
<path d="M2449 3898 c-30 -132 -40 -144 -149 -168 -47 -10 -105 -26 -129 -34
-78 -28 -88 -24 -176 69 l-80 84 -72 -41 c-40 -23 -73 -47 -73 -53 0 -5 14
-54 30 -108 21 -70 27 -104 20 -120 -10 -26 -207 -222 -232 -230 -10 -4 -61 7
-115 23 -54 17 -103 30 -109 30 -5 0 -29 -33 -52 -72 l-42 -73 85 -80 c95 -90
97 -96 66 -187 -10 -31 -24 -82 -31 -114 -23 -120 -22 -119 -173 -154 l-97
-22 0 -88 0 -88 97 -22 c151 -35 150 -34 173 -154 7 -32 21 -83 31 -114 31
-91 29 -97 -66 -187 l-85 -80 42 -72 c23 -40 47 -73 52 -73 6 0 55 13 109 30
54 16 105 27 115 23 25 -8 222 -204 232 -230 7 -16 1 -50 -20 -120 -16 -54
-30 -103 -30 -108 0 -6 33 -30 73 -53 l72 -41 80 84 c90 95 96 97 187 66 31
-10 82 -24 114 -31 120 -23 119 -22 154 -173 l22 -97 88 0 88 0 22 97 c35 151
34 150 154 173 32 7 83 21 114 31 91 31 97 29 187 -66 l80 -85 73 42 c39 23
72 47 72 52 0 6 -14 55 -30 109 -21 70 -27 104 -20 120 10 26 207 222 232 230
10 4 61 -7 115 -23 54 -17 103 -30 109 -30 5 0 29 33 52 73 l42 72 -85 80
c-95 90 -97 96 -66 187 10 31 24 82 31 114 23 120 22 119 173 153 l97 23 0 88
0 89 -102 22 c-132 30 -144 40 -168 149 -10 47 -26 105 -34 129 -28 78 -24 88
69 176 l85 80 -42 73 c-23 39 -47 72 -52 72 -6 0 -55 -13 -109 -30 -54 -16
-105 -27 -115 -23 -25 8 -222 204 -232 230 -7 16 -1 50 20 120 16 54 30 103
30 109 0 5 -33 29 -72 52 l-73 42 -80 -85 c-90 -95 -96 -97 -187 -66 -31 10
-82 24 -114 31 -120 23 -119 22 -154 173 l-22 97 -89 0 -88 0 -22 -102z m283
-469 c290 -31 503 -134 538 -258 13 -48 13 -1254 0 -1302 -26 -92 -155 -177
-343 -224 -444 -112 -1017 8 -1077 224 -13 48 -13 1254 0 1302 50 181 466 303
882 258z"/>
<path d="M2362 3270 c-103 -15 -223 -49 -286 -83 -101 -54 -101 -79 0 -133
123 -68 318 -100 549 -90 183 7 303 32 404 83 121 62 121 84 0 146 -111 56
-221 77 -429 82 -96 2 -203 0 -238 -5z"/>
<path d="M2002 2804 l3 -109 55 -33 c55 -33 132 -59 245 -84 96 -20 429 -17
535 6 106 23 172 47 233 86 l47 30 0 106 c0 97 -1 105 -17 98 -10 -4 -54 -20
-98 -35 -133 -46 -249 -63 -445 -63 -196 0 -312 17 -445 63 -44 15 -88 31 -98
35 -16 8 -18 1 -15 -100z"/>
<path d="M2002 2404 l3 -109 55 -33 c55 -33 132 -59 245 -84 96 -20 429 -17
535 6 106 23 172 47 233 86 l47 30 0 106 c0 97 -1 105 -17 98 -63 -27 -193
-66 -273 -80 -130 -24 -410 -24 -540 0 -80 14 -210 53 -273 80 -16 8 -18 1
-15 -100z"/>
<path d="M2002 2004 l3 -109 55 -33 c55 -33 132 -59 245 -84 96 -20 429 -17
535 6 106 23 172 47 233 86 l47 30 0 106 c0 97 -1 105 -17 98 -63 -27 -193
-66 -273 -80 -130 -24 -410 -24 -540 0 -80 14 -210 53 -273 80 -16 8 -18 1
-15 -100z"/>
<path d="M585 3335 c-50 -49 -15 -135 55 -135 41 0 80 39 80 80 0 41 -39 80
-80 80 -19 0 -40 -9 -55 -25z"/>
<path d="M4425 3335 c-16 -15 -25 -36 -25 -55 0 -19 9 -40 25 -55 15 -16 36
-25 55 -25 19 0 40 9 55 25 16 15 25 36 25 55 0 19 -9 40 -25 55 -15 16 -36
25 -55 25 -19 0 -40 -9 -55 -25z"/>
<path d="M345 2615 c-16 -15 -25 -36 -25 -55 0 -19 9 -40 25 -55 49 -50 135
-15 135 55 0 41 -39 80 -80 80 -19 0 -40 -9 -55 -25z"/>
<path d="M4665 2615 c-50 -49 -15 -135 55 -135 41 0 80 39 80 80 0 19 -9 40
-25 55 -15 16 -36 25 -55 25 -19 0 -40 -9 -55 -25z"/>
<path d="M585 1895 c-16 -15 -25 -36 -25 -55 0 -19 9 -40 25 -55 15 -16 36
-25 55 -25 19 0 40 9 55 25 16 15 25 36 25 55 0 19 -9 40 -25 55 -15 16 -36
25 -55 25 -19 0 -40 -9 -55 -25z"/>
<path d="M4425 1895 c-50 -49 -15 -135 55 -135 41 0 80 39 80 80 0 41 -39 80
-80 80 -19 0 -40 -9 -55 -25z"/>
<path d="M345 455 c-16 -15 -25 -36 -25 -55 0 -19 9 -40 25 -55 15 -16 36 -25
55 -25 70 0 105 86 55 135 -15 16 -36 25 -55 25 -19 0 -40 -9 -55 -25z"/>
<path d="M1225 455 c-16 -15 -25 -36 -25 -55 0 -19 9 -40 25 -55 49 -50 135
-15 135 55 0 41 -39 80 -80 80 -19 0 -40 -9 -55 -25z"/>
<path d="M2505 455 c-50 -49 -15 -135 55 -135 41 0 80 39 80 80 0 41 -39 80
-80 80 -19 0 -40 -9 -55 -25z"/>
<path d="M3785 455 c-50 -49 -15 -135 55 -135 41 0 80 39 80 80 0 41 -39 80
-80 80 -19 0 -40 -9 -55 -25z"/>
<path d="M4665 455 c-50 -49 -15 -135 55 -135 41 0 80 39 80 80 0 41 -39 80
-80 80 -19 0 -40 -9 -55 -25z"/>
</g>
</svg>
