<?xml version="1.0" standalone="no"?>
<!DOCTYPE svg PUBLIC "-//W3C//DTD SVG 20010904//EN"
 "http://www.w3.org/TR/2001/REC-SVG-20010904/DTD/svg10.dtd">
<svg version="1.0" xmlns="http://www.w3.org/2000/svg"
 width="512.000000pt" height="512.000000pt" viewBox="0 0 512.000000 512.000000"
 preserveAspectRatio="xMidYMid meet">

<g transform="translate(0.000000,512.000000) scale(0.100000,-0.100000)"
fill="#000000" stroke="none">
<path d="M0 2560 l0 -2560 2490 0 2490 0 0 150 0 150 -915 0 -916 0 -494 197
c-272 108 -495 199 -495 203 0 3 222 95 493 203 l492 197 918 0 917 0 0 1655
0 1655 -1925 0 -1925 0 0 -475 0 -475 75 0 75 0 0 400 0 400 1775 0 1775 0 0
-675 0 -675 -1435 0 -1435 0 0 -75 0 -75 485 0 485 0 0 -525 0 -525 -485 0
-485 0 0 -751 c0 -566 -3 -762 -12 -793 -17 -55 -91 -131 -143 -145 -56 -15
-1584 -15 -1640 0 -61 17 -130 93 -145 160 -8 40 -10 457 -8 1584 l3 1530 22
40 c24 46 54 75 103 101 32 18 67 19 437 22 l403 3 0 829 0 830 -490 0 -490 0
0 -2560z m4830 -325 l0 -525 -825 0 -825 0 0 525 0 525 825 0 825 0 0 -525z
m-1210 -760 l0 -75 -70 0 -70 0 0 75 0 75 70 0 70 0 0 -75z m300 0 l0 -75 -70
0 -70 0 0 75 0 75 70 0 70 0 0 -75z m300 0 l0 -75 -70 0 -70 0 0 75 0 75 70 0
70 0 0 -75z m300 0 l0 -75 -70 0 -70 0 0 75 0 75 70 0 70 0 0 -75z"/>
<path d="M3330 2235 l0 -375 675 0 675 0 0 375 0 375 -675 0 -675 0 0 -375z"/>
<path d="M1130 4765 l0 -205 1925 0 1925 0 0 205 0 205 -1925 0 -1925 0 0
-205z m318 3 l-3 -73 -72 -3 -73 -3 0 76 0 75 75 0 76 0 -3 -72z m300 0 l-3
-73 -72 -3 -73 -3 0 76 0 75 75 0 76 0 -3 -72z m300 0 l-3 -73 -72 -3 -73 -3
0 76 0 75 75 0 76 0 -3 -72z m2772 -3 l0 -75 -1270 0 -1270 0 0 75 0 75 1270
0 1270 0 0 -75z"/>
<path d="M1430 3786 l0 -324 183 -4 c205 -3 236 -12 295 -83 41 -50 52 -96 52
-214 l0 -101 1360 0 1360 0 0 525 0 525 -1625 0 -1625 0 0 -324z m3080 84 l0
-70 -490 0 -490 0 0 70 0 70 490 0 490 0 0 -70z m-300 -295 l0 -75 -580 0
-580 0 0 75 0 75 580 0 580 0 0 -75z m300 0 l0 -75 -75 0 -75 0 0 75 0 75 75
0 75 0 0 -75z m-1710 -300 l0 -75 -75 0 -75 0 0 75 0 75 75 0 75 0 0 -75z
m300 0 l0 -75 -75 0 -75 0 0 75 0 75 75 0 75 0 0 -75z m1410 0 l0 -75 -630 0
-630 0 0 75 0 75 630 0 630 0 0 -75z"/>
<path d="M185 3285 c-25 -24 -25 -25 -25 -220 l0 -195 825 0 825 0 0 199 0
200 -26 20 c-26 21 -33 21 -801 21 l-774 0 -24 -25z m415 -195 l0 -70 -75 0
-75 0 0 70 0 70 75 0 75 0 0 -70z m950 0 l0 -70 -400 0 -400 0 0 70 0 70 400
0 400 0 0 -70z"/>
<path d="M160 1880 l0 -840 170 0 170 0 0 263 c0 287 7 336 58 431 34 62 107
143 159 176 l40 24 -43 52 c-137 168 -104 425 70 543 69 47 132 66 221 66 69
0 90 -5 147 -32 82 -39 145 -100 184 -179 26 -53 29 -69 29 -159 0 -113 -13
-153 -80 -239 l-38 -50 24 -15 c50 -31 156 -148 182 -201 47 -96 57 -171 57
-437 l0 -243 150 0 150 0 0 840 0 840 -825 0 -825 0 0 -840z"/>
<path d="M1960 2235 l0 -375 410 0 410 0 0 375 0 375 -410 0 -410 0 0 -375z"/>
<path d="M922 2437 c-162 -59 -198 -276 -65 -386 128 -106 323 -37 363 128 40
166 -134 317 -298 258z"/>
<path d="M903 1836 c-107 -35 -196 -116 -235 -215 -20 -52 -22 -75 -26 -318
l-4 -263 362 0 361 0 -3 273 -3 272 -28 57 c-36 73 -101 139 -173 174 -68 33
-183 42 -251 20z"/>
<path d="M3351 933 c8 -10 55 -64 106 -119 51 -56 93 -107 93 -114 0 -6 -47
-63 -105 -126 -58 -62 -105 -116 -105 -119 0 -3 400 -5 890 -5 l890 0 0 250 0
250 -891 0 c-848 0 -891 -1 -878 -17z"/>
<path d="M3038 898 l-98 -40 0 -158 0 -158 102 -41 c56 -22 102 -40 103 -38 1
1 50 55 109 120 l108 117 -108 118 c-60 64 -111 118 -114 119 -3 0 -49 -17
-102 -39z"/>
<path d="M160 547 l0 -344 23 -21 23 -22 780 0 781 0 21 23 c22 23 22 28 22
365 l0 342 -825 0 -825 0 0 -343z m950 170 c117 -60 149 -223 65 -333 -41 -53
-122 -88 -190 -81 -61 6 -99 23 -139 64 -84 83 -88 223 -8 306 73 77 175 94
272 44z"/>
<path d="M956 579 c-33 -26 -36 -79 -6 -109 30 -30 83 -27 109 6 28 35 26 69
-4 99 -30 30 -64 32 -99 4z"/>
<path d="M2665 750 l-120 -48 35 -15 c19 -8 74 -31 123 -50 l87 -35 0 99 c0
54 -1 99 -2 98 -2 -1 -57 -23 -123 -49z"/>
</g>
</svg>
