<?xml version="1.0" standalone="no"?>
<!DOCTYPE svg PUBLIC "-//W3C//DTD SVG 20010904//EN"
 "http://www.w3.org/TR/2001/REC-SVG-20010904/DTD/svg10.dtd">
<svg version="1.0" xmlns="http://www.w3.org/2000/svg"
 width="512.000000pt" height="512.000000pt" viewBox="0 0 512.000000 512.000000"
 preserveAspectRatio="xMidYMid meet">

<g transform="translate(0.000000,512.000000) scale(0.100000,-0.100000)"
fill="#000000" stroke="none">
<path d="M0 2560 l0 -2560 2560 0 2560 0 0 2560 0 2560 -2560 0 -2560 0 0
-2560z m3281 2384 c63 -30 116 -79 147 -138 l27 -51 3 -456 c3 -426 2 -457
-15 -477 -29 -34 -66 -37 -99 -9 l-29 25 -3 211 -3 211 -1235 0 -1234 0 0
-1480 c0 -1078 -3 -1486 -11 -1504 -18 -38 -60 -51 -98 -32 -17 9 -33 26 -36
39 -3 12 -4 796 -3 1742 l3 1720 24 49 c40 82 119 145 206 167 17 4 543 6
1170 6 1136 -2 1140 -2 1186 -23z m-961 -894 c11 -11 20 -32 19 -47 0 -16
-102 -284 -227 -598 -205 -513 -230 -571 -256 -583 -37 -18 -80 -1 -96 39 -12
27 3 69 215 601 125 315 234 581 242 591 22 23 78 22 103 -3z m-706 -242 c37
-52 25 -72 -123 -222 l-139 -141 139 -144 c122 -126 139 -147 139 -176 0 -36
-37 -75 -69 -75 -29 1 -54 23 -223 196 -137 140 -168 177 -168 200 0 23 32 60
177 206 167 167 180 178 215 178 27 0 41 -6 52 -22z m1187 -153 c152 -154 174
-180 177 -211 3 -34 -4 -43 -170 -210 -193 -194 -215 -208 -262 -161 -49 49
-40 66 116 224 l142 143 -100 103 c-152 155 -184 194 -184 222 0 35 33 65 73
65 30 0 52 -19 208 -175z m778 -404 c11 -11 23 -35 26 -53 3 -18 11 -64 18
-102 l12 -69 65 -27 65 -26 72 58 c87 71 109 80 148 63 38 -16 241 -221 253
-255 12 -33 4 -53 -62 -144 l-54 -77 28 -62 c31 -69 33 -70 155 -82 63 -6 83
-12 101 -31 23 -22 24 -28 24 -198 0 -222 2 -218 -146 -242 l-102 -17 -26 -65
-26 -66 28 -36 c80 -100 102 -134 102 -158 0 -40 -246 -284 -285 -284 -17 0
-60 22 -114 59 l-86 60 -60 -26 c-33 -14 -63 -30 -66 -35 -4 -5 -10 -47 -14
-95 -11 -132 -26 -151 -127 -151 l-47 0 -3 -412 -3 -413 -27 -51 c-31 -59 -84
-108 -147 -138 -46 -21 -48 -21 -1206 -21 l-1160 0 -49 24 c-63 31 -122 90
-150 150 -20 43 -21 64 -24 341 -3 289 -3 297 18 323 l21 27 1290 0 1289 0 0
85 0 85 -44 0 c-69 0 -84 19 -102 130 -8 52 -18 101 -22 108 -5 10 -113 62
-129 62 -1 0 -38 -29 -84 -65 -116 -92 -115 -92 -260 51 -65 64 -123 130 -130
146 -15 36 -8 52 62 148 l51 71 -22 57 c-13 31 -28 62 -34 68 -6 6 -56 16
-111 22 -140 16 -135 7 -135 237 0 183 0 184 24 203 16 12 57 24 114 32 50 7
94 15 99 19 5 3 20 34 35 67 l26 62 -64 78 c-95 118 -95 120 64 277 96 94 135
127 154 127 14 0 62 -26 112 -61 l87 -61 64 27 c71 30 66 21 81 162 4 39 13
72 26 88 l19 25 185 0 c169 0 186 -2 203 -19z"/>
<path d="M922 4803 c-18 -9 -43 -30 -55 -47 -20 -28 -22 -44 -25 -193 l-3
-163 1235 0 1236 0 0 159 c0 148 -1 160 -23 192 -49 74 38 69 -1212 69 -1011
0 -1123 -2 -1153 -17z m1589 -142 c25 -30 24 -76 -1 -101 -19 -19 -33 -20
-240 -20 l-221 0 -24 25 c-14 13 -25 32 -25 42 0 25 27 62 54 73 11 5 115 8
229 7 206 -2 209 -2 228 -26z"/>
<path d="M3287 3088 c-4 -24 -9 -69 -13 -100 -7 -66 -27 -88 -94 -107 -25 -7
-71 -26 -102 -42 -32 -16 -69 -29 -84 -29 -16 0 -57 22 -104 54 l-77 54 -62
-62 -62 -62 56 -70 c30 -38 58 -79 61 -92 4 -16 -5 -49 -29 -100 -20 -42 -41
-96 -47 -120 -14 -53 -36 -68 -125 -82 -119 -19 -116 -17 -113 -112 l3 -83 90
-11 c50 -6 100 -16 112 -22 14 -8 29 -36 43 -79 12 -38 32 -87 46 -110 37 -64
32 -93 -30 -182 l-55 -78 62 -61 62 -61 75 60 c86 67 107 71 179 35 26 -14 78
-34 114 -46 37 -12 71 -29 76 -38 5 -10 14 -51 21 -92 19 -119 9 -110 109
-110 l88 0 10 95 c7 62 16 101 26 113 9 10 43 26 74 36 32 10 82 31 110 47 29
16 62 29 74 29 11 0 57 -25 101 -56 l80 -57 59 59 c32 32 59 62 59 66 0 4 -25
40 -55 79 -32 41 -55 81 -55 95 0 14 11 46 24 72 13 26 33 77 45 114 12 36 28
72 36 78 7 6 57 18 109 27 l96 16 0 88 0 87 -37 6 c-21 3 -63 8 -93 12 -76 9
-86 16 -106 76 -9 29 -32 83 -50 120 -19 37 -34 76 -34 86 0 11 25 54 55 96
30 42 55 80 55 84 0 4 -27 34 -59 66 l-60 59 -77 -62 c-42 -33 -85 -61 -96
-61 -10 0 -51 15 -91 34 -40 19 -90 39 -113 45 -59 16 -73 37 -90 137 -8 48
-18 92 -20 96 -3 4 -43 8 -88 8 l-84 0 -5 -42z m265 -496 c123 -58 196 -151
223 -281 65 -308 -250 -566 -541 -445 -66 27 -135 85 -174 146 -119 183 -79
408 95 540 110 84 271 100 397 40z"/>
<path d="M3300 2467 c-49 -16 -133 -102 -148 -153 -31 -107 3 -217 87 -281 69
-53 69 -53 73 122 3 143 5 156 25 176 30 30 80 30 105 0 16 -20 18 -42 18
-177 0 -101 4 -154 10 -154 37 0 115 69 144 127 40 80 25 193 -34 265 -44 53
-121 88 -189 87 -31 -1 -72 -6 -91 -12z"/>
<path d="M842 633 c3 -228 4 -239 25 -269 49 -68 -28 -64 1210 -64 1248 0
1161 -5 1210 69 22 33 23 41 23 267 l0 234 -1236 0 -1235 0 3 -237z m1628 -25
c25 -27 26 -69 1 -99 l-19 -24 -349 -3 c-375 -4 -412 0 -431 43 -17 36 -15 48
9 79 l20 26 374 0 c372 0 374 0 395 -22z"/>
</g>
</svg>
